<mxfile host="app.diagrams.net" agent="Mozilla/5.0 (Windows NT 10.0; Win64; x64) AppleWebKit/537.36 (KHTML, like Gecko) Chrome/129.0.0.0 Safari/537.36" version="24.7.17">
  <diagram name="Page-1" id="a28ancNvF9rZe4fi2EuK">
    <mxGraphModel dx="1861" dy="1610" grid="1" gridSize="10" guides="1" tooltips="1" connect="1" arrows="1" fold="1" page="1" pageScale="1" pageWidth="850" pageHeight="1100" math="0" shadow="0">
      <root>
        <mxCell id="0" />
        <mxCell id="1" parent="0" />
        <mxCell id="AbsimfLk_RCkw9cmsR7M-20" value="" style="rounded=0;whiteSpace=wrap;html=1;dashed=1;" parent="1" vertex="1">
          <mxGeometry x="268" y="98.75" width="582.5" height="212.5" as="geometry" />
        </mxCell>
        <mxCell id="AbsimfLk_RCkw9cmsR7M-3" value="" style="ellipse;whiteSpace=wrap;html=1;" parent="1" vertex="1">
          <mxGeometry x="500" width="95" height="40" as="geometry" />
        </mxCell>
        <mxCell id="AbsimfLk_RCkw9cmsR7M-4" value="" style="endArrow=none;html=1;rounded=0;exitX=1;exitY=1;exitDx=0;exitDy=0;entryX=0;entryY=0.5;entryDx=0;entryDy=0;" parent="1" source="hoW1CS-x4XJGpvW3vnKM-7" target="AbsimfLk_RCkw9cmsR7M-3" edge="1">
          <mxGeometry width="50" height="50" relative="1" as="geometry">
            <mxPoint x="460" y="-5" as="sourcePoint" />
            <mxPoint x="510" y="20" as="targetPoint" />
          </mxGeometry>
        </mxCell>
        <mxCell id="AbsimfLk_RCkw9cmsR7M-2" value="" style="ellipse;whiteSpace=wrap;html=1;" parent="1" vertex="1">
          <mxGeometry x="185" y="-310" width="95" height="40" as="geometry" />
        </mxCell>
        <mxCell id="hoW1CS-x4XJGpvW3vnKM-76" value="" style="ellipse;whiteSpace=wrap;html=1;" parent="1" vertex="1">
          <mxGeometry x="-77.5" y="-275" width="95" height="40" as="geometry" />
        </mxCell>
        <mxCell id="hoW1CS-x4XJGpvW3vnKM-4" value="Cast" style="rounded=0;whiteSpace=wrap;html=1;" parent="1" vertex="1">
          <mxGeometry x="362.5" y="165" width="80" height="40" as="geometry" />
        </mxCell>
        <mxCell id="hoW1CS-x4XJGpvW3vnKM-5" value="&lt;div&gt;Producer&lt;/div&gt;" style="rounded=0;whiteSpace=wrap;html=1;" parent="1" vertex="1">
          <mxGeometry x="55" y="-280" width="80" height="40" as="geometry" />
        </mxCell>
        <mxCell id="hoW1CS-x4XJGpvW3vnKM-6" value="Marketing" style="rounded=0;whiteSpace=wrap;html=1;" parent="1" vertex="1">
          <mxGeometry x="710" y="-185" width="80" height="40" as="geometry" />
        </mxCell>
        <mxCell id="hoW1CS-x4XJGpvW3vnKM-7" value="Director" style="rounded=0;whiteSpace=wrap;html=1;" parent="1" vertex="1">
          <mxGeometry x="402.5" y="-50" width="80" height="40" as="geometry" />
        </mxCell>
        <mxCell id="hoW1CS-x4XJGpvW3vnKM-8" value="Finance Team" style="rounded=0;whiteSpace=wrap;html=1;" parent="1" vertex="1">
          <mxGeometry x="-320" y="-95" width="80" height="40" as="geometry" />
        </mxCell>
        <mxCell id="hoW1CS-x4XJGpvW3vnKM-9" value="Creative Team" style="rounded=0;whiteSpace=wrap;html=1;" parent="1" vertex="1">
          <mxGeometry x="-290" y="35" width="80" height="40" as="geometry" />
        </mxCell>
        <mxCell id="hoW1CS-x4XJGpvW3vnKM-10" value="Screenwriters" style="rounded=0;whiteSpace=wrap;html=1;" parent="1" vertex="1">
          <mxGeometry x="-2.5" y="26.25" width="80" height="40" as="geometry" />
        </mxCell>
        <mxCell id="hoW1CS-x4XJGpvW3vnKM-11" value="Audition" style="rounded=0;whiteSpace=wrap;html=1;" parent="1" vertex="1">
          <mxGeometry x="622.5" y="165" width="80" height="40" as="geometry" />
        </mxCell>
        <mxCell id="hoW1CS-x4XJGpvW3vnKM-14" value="Produces" style="rhombus;whiteSpace=wrap;html=1;" parent="1" vertex="1">
          <mxGeometry x="-340" y="-370" width="110" height="80" as="geometry" />
        </mxCell>
        <mxCell id="1Vm8GJdrDrxkY6hrFtAs-20" style="edgeStyle=orthogonalEdgeStyle;rounded=0;orthogonalLoop=1;jettySize=auto;html=1;entryX=0.5;entryY=1;entryDx=0;entryDy=0;" edge="1" parent="1" source="hoW1CS-x4XJGpvW3vnKM-22" target="hoW1CS-x4XJGpvW3vnKM-5">
          <mxGeometry relative="1" as="geometry" />
        </mxCell>
        <mxCell id="1Vm8GJdrDrxkY6hrFtAs-21" style="edgeStyle=orthogonalEdgeStyle;rounded=0;orthogonalLoop=1;jettySize=auto;html=1;entryX=1;entryY=0.25;entryDx=0;entryDy=0;" edge="1" parent="1" source="hoW1CS-x4XJGpvW3vnKM-22" target="hoW1CS-x4XJGpvW3vnKM-8">
          <mxGeometry relative="1" as="geometry" />
        </mxCell>
        <mxCell id="hoW1CS-x4XJGpvW3vnKM-22" value="Hires" style="rhombus;whiteSpace=wrap;html=1;" parent="1" vertex="1">
          <mxGeometry x="40" y="-125" width="110" height="80" as="geometry" />
        </mxCell>
        <mxCell id="hoW1CS-x4XJGpvW3vnKM-24" value="Directs" style="rhombus;whiteSpace=wrap;html=1;" parent="1" vertex="1">
          <mxGeometry x="97.5" y="65" width="110" height="80" as="geometry" />
        </mxCell>
        <mxCell id="hoW1CS-x4XJGpvW3vnKM-25" value="Works on" style="rhombus;whiteSpace=wrap;html=1;" parent="1" vertex="1">
          <mxGeometry x="-150" y="120" width="110" height="80" as="geometry" />
        </mxCell>
        <mxCell id="hoW1CS-x4XJGpvW3vnKM-26" value="Writes for" style="rhombus;whiteSpace=wrap;html=1;" parent="1" vertex="1">
          <mxGeometry x="-17.5" y="125" width="110" height="80" as="geometry" />
        </mxCell>
        <mxCell id="hoW1CS-x4XJGpvW3vnKM-27" value="Conducts" style="rhombus;whiteSpace=wrap;html=1;" parent="1" vertex="1">
          <mxGeometry x="365" y="15" width="110" height="80" as="geometry" />
        </mxCell>
        <mxCell id="hoW1CS-x4XJGpvW3vnKM-29" value="Finalize" style="rhombus;whiteSpace=wrap;html=1;" parent="1" vertex="1">
          <mxGeometry x="477.5" y="145" width="110" height="80" as="geometry" />
        </mxCell>
        <mxCell id="hoW1CS-x4XJGpvW3vnKM-30" value="Acts for" style="rhombus;whiteSpace=wrap;html=1;" parent="1" vertex="1">
          <mxGeometry x="180" y="340" width="110" height="80" as="geometry" />
        </mxCell>
        <mxCell id="hoW1CS-x4XJGpvW3vnKM-40" value="" style="endArrow=none;html=1;rounded=0;entryX=0;entryY=0.5;entryDx=0;entryDy=0;exitX=0.5;exitY=0;exitDx=0;exitDy=0;" parent="1" source="hoW1CS-x4XJGpvW3vnKM-10" target="hoW1CS-x4XJGpvW3vnKM-22" edge="1">
          <mxGeometry width="50" height="50" relative="1" as="geometry">
            <mxPoint x="50" y="-75" as="sourcePoint" />
            <mxPoint x="50" y="-125" as="targetPoint" />
          </mxGeometry>
        </mxCell>
        <mxCell id="hoW1CS-x4XJGpvW3vnKM-52" value="" style="endArrow=none;html=1;rounded=0;entryX=0.5;entryY=1;entryDx=0;entryDy=0;exitX=0.5;exitY=0;exitDx=0;exitDy=0;" parent="1" source="hoW1CS-x4XJGpvW3vnKM-26" target="hoW1CS-x4XJGpvW3vnKM-10" edge="1">
          <mxGeometry width="50" height="50" relative="1" as="geometry">
            <mxPoint x="160" y="35" as="sourcePoint" />
            <mxPoint x="160" y="-15" as="targetPoint" />
          </mxGeometry>
        </mxCell>
        <mxCell id="hoW1CS-x4XJGpvW3vnKM-58" value="Budgeting" style="rhombus;whiteSpace=wrap;html=1;" parent="1" vertex="1">
          <mxGeometry x="-620" y="-36.25" width="110" height="80" as="geometry" />
        </mxCell>
        <mxCell id="hoW1CS-x4XJGpvW3vnKM-64" value="Markets" style="rhombus;whiteSpace=wrap;html=1;" parent="1" vertex="1">
          <mxGeometry x="985" y="120" width="110" height="80" as="geometry" />
        </mxCell>
        <mxCell id="hoW1CS-x4XJGpvW3vnKM-68" value="&lt;u&gt;p_id&lt;/u&gt;" style="ellipse;whiteSpace=wrap;html=1;" parent="1" vertex="1">
          <mxGeometry x="57.5" y="-395" width="75" height="30" as="geometry" />
        </mxCell>
        <mxCell id="hoW1CS-x4XJGpvW3vnKM-69" value="p_name" style="ellipse;whiteSpace=wrap;html=1;" parent="1" vertex="1">
          <mxGeometry x="192.5" y="-390" width="75" height="30" as="geometry" />
        </mxCell>
        <mxCell id="hoW1CS-x4XJGpvW3vnKM-70" value="f_name" style="ellipse;whiteSpace=wrap;html=1;" parent="1" vertex="1">
          <mxGeometry x="252.5" y="-450" width="75" height="30" as="geometry" />
        </mxCell>
        <mxCell id="hoW1CS-x4XJGpvW3vnKM-71" value="m_name" style="ellipse;whiteSpace=wrap;html=1;" parent="1" vertex="1">
          <mxGeometry x="297.5" y="-400" width="75" height="30" as="geometry" />
        </mxCell>
        <mxCell id="hoW1CS-x4XJGpvW3vnKM-72" value="l_name" style="ellipse;whiteSpace=wrap;html=1;" parent="1" vertex="1">
          <mxGeometry x="295" y="-340" width="75" height="30" as="geometry" />
        </mxCell>
        <mxCell id="hoW1CS-x4XJGpvW3vnKM-73" value="p_dob" style="ellipse;whiteSpace=wrap;html=1;" parent="1" vertex="1">
          <mxGeometry x="-47.5" y="-385" width="75" height="30" as="geometry" />
        </mxCell>
        <mxCell id="hoW1CS-x4XJGpvW3vnKM-74" value="p_age" style="ellipse;whiteSpace=wrap;html=1;dashed=1;" parent="1" vertex="1">
          <mxGeometry x="-122.5" y="-325" width="75" height="30" as="geometry" />
        </mxCell>
        <mxCell id="hoW1CS-x4XJGpvW3vnKM-75" value="&lt;p&gt;p_phno&lt;/p&gt;" style="ellipse;whiteSpace=wrap;html=1;" parent="1" vertex="1">
          <mxGeometry x="-67.5" y="-270" width="75" height="30" as="geometry" />
        </mxCell>
        <mxCell id="hoW1CS-x4XJGpvW3vnKM-77" value="p_email" style="ellipse;whiteSpace=wrap;html=1;" parent="1" vertex="1">
          <mxGeometry x="192.5" y="-305" width="75" height="30" as="geometry" />
        </mxCell>
        <mxCell id="hoW1CS-x4XJGpvW3vnKM-78" value="" style="endArrow=none;html=1;rounded=0;exitX=1;exitY=0.5;exitDx=0;exitDy=0;entryX=0.5;entryY=1;entryDx=0;entryDy=0;" parent="1" source="hoW1CS-x4XJGpvW3vnKM-5" target="AbsimfLk_RCkw9cmsR7M-2" edge="1">
          <mxGeometry width="50" height="50" relative="1" as="geometry">
            <mxPoint x="222.5" y="-265" as="sourcePoint" />
            <mxPoint x="272.5" y="-315" as="targetPoint" />
          </mxGeometry>
        </mxCell>
        <mxCell id="hoW1CS-x4XJGpvW3vnKM-80" value="" style="endArrow=none;html=1;rounded=0;exitX=0.5;exitY=0;exitDx=0;exitDy=0;entryX=0.5;entryY=1;entryDx=0;entryDy=0;" parent="1" source="hoW1CS-x4XJGpvW3vnKM-5" target="hoW1CS-x4XJGpvW3vnKM-68" edge="1">
          <mxGeometry width="50" height="50" relative="1" as="geometry">
            <mxPoint x="152.5" y="-245" as="sourcePoint" />
            <mxPoint x="240.5" y="-265" as="targetPoint" />
          </mxGeometry>
        </mxCell>
        <mxCell id="hoW1CS-x4XJGpvW3vnKM-81" value="" style="endArrow=none;html=1;rounded=0;exitX=1;exitY=0;exitDx=0;exitDy=0;entryX=0.5;entryY=1;entryDx=0;entryDy=0;" parent="1" source="hoW1CS-x4XJGpvW3vnKM-5" target="hoW1CS-x4XJGpvW3vnKM-69" edge="1">
          <mxGeometry width="50" height="50" relative="1" as="geometry">
            <mxPoint x="162.5" y="-235" as="sourcePoint" />
            <mxPoint x="250.5" y="-255" as="targetPoint" />
          </mxGeometry>
        </mxCell>
        <mxCell id="hoW1CS-x4XJGpvW3vnKM-82" value="" style="endArrow=none;html=1;rounded=0;exitX=1;exitY=0;exitDx=0;exitDy=0;entryX=0.5;entryY=1;entryDx=0;entryDy=0;" parent="1" source="hoW1CS-x4XJGpvW3vnKM-69" edge="1">
          <mxGeometry width="50" height="50" relative="1" as="geometry">
            <mxPoint x="202.5" y="-400" as="sourcePoint" />
            <mxPoint x="290.5" y="-420" as="targetPoint" />
          </mxGeometry>
        </mxCell>
        <mxCell id="hoW1CS-x4XJGpvW3vnKM-83" value="" style="endArrow=none;html=1;rounded=0;exitX=1;exitY=0.5;exitDx=0;exitDy=0;entryX=0;entryY=0.5;entryDx=0;entryDy=0;" parent="1" source="hoW1CS-x4XJGpvW3vnKM-69" target="hoW1CS-x4XJGpvW3vnKM-71" edge="1">
          <mxGeometry width="50" height="50" relative="1" as="geometry">
            <mxPoint x="182.5" y="-215" as="sourcePoint" />
            <mxPoint x="270.5" y="-235" as="targetPoint" />
          </mxGeometry>
        </mxCell>
        <mxCell id="hoW1CS-x4XJGpvW3vnKM-84" value="" style="endArrow=none;html=1;rounded=0;exitX=1;exitY=1;exitDx=0;exitDy=0;entryX=0;entryY=0.5;entryDx=0;entryDy=0;" parent="1" source="hoW1CS-x4XJGpvW3vnKM-69" target="hoW1CS-x4XJGpvW3vnKM-72" edge="1">
          <mxGeometry width="50" height="50" relative="1" as="geometry">
            <mxPoint x="192.5" y="-205" as="sourcePoint" />
            <mxPoint x="280.5" y="-225" as="targetPoint" />
          </mxGeometry>
        </mxCell>
        <mxCell id="hoW1CS-x4XJGpvW3vnKM-86" value="" style="endArrow=none;html=1;rounded=0;exitX=0.25;exitY=0;exitDx=0;exitDy=0;entryX=0.412;entryY=0.964;entryDx=0;entryDy=0;entryPerimeter=0;" parent="1" source="hoW1CS-x4XJGpvW3vnKM-5" target="hoW1CS-x4XJGpvW3vnKM-73" edge="1">
          <mxGeometry width="50" height="50" relative="1" as="geometry">
            <mxPoint x="112.5" y="-265" as="sourcePoint" />
            <mxPoint x="104.5" y="-355" as="targetPoint" />
          </mxGeometry>
        </mxCell>
        <mxCell id="hoW1CS-x4XJGpvW3vnKM-87" value="" style="endArrow=none;html=1;rounded=0;exitX=0;exitY=0;exitDx=0;exitDy=0;entryX=1;entryY=0.5;entryDx=0;entryDy=0;" parent="1" source="hoW1CS-x4XJGpvW3vnKM-5" target="hoW1CS-x4XJGpvW3vnKM-74" edge="1">
          <mxGeometry width="50" height="50" relative="1" as="geometry">
            <mxPoint x="122.5" y="-255" as="sourcePoint" />
            <mxPoint x="114.5" y="-345" as="targetPoint" />
          </mxGeometry>
        </mxCell>
        <mxCell id="hoW1CS-x4XJGpvW3vnKM-89" value="" style="endArrow=none;html=1;rounded=0;exitX=0;exitY=0.5;exitDx=0;exitDy=0;entryX=1;entryY=0.5;entryDx=0;entryDy=0;" parent="1" source="hoW1CS-x4XJGpvW3vnKM-5" target="hoW1CS-x4XJGpvW3vnKM-76" edge="1">
          <mxGeometry width="50" height="50" relative="1" as="geometry">
            <mxPoint x="132.5" y="-245" as="sourcePoint" />
            <mxPoint x="22.5" y="-255" as="targetPoint" />
          </mxGeometry>
        </mxCell>
        <mxCell id="hoW1CS-x4XJGpvW3vnKM-97" value="" style="endArrow=none;html=1;rounded=0;entryX=1;entryY=0.5;entryDx=0;entryDy=0;exitX=0;exitY=0.5;exitDx=0;exitDy=0;" parent="1" source="hoW1CS-x4XJGpvW3vnKM-11" target="hoW1CS-x4XJGpvW3vnKM-29" edge="1">
          <mxGeometry width="50" height="50" relative="1" as="geometry">
            <mxPoint x="372.5" y="275" as="sourcePoint" />
            <mxPoint x="412.5" y="215" as="targetPoint" />
          </mxGeometry>
        </mxCell>
        <mxCell id="hoW1CS-x4XJGpvW3vnKM-99" value="" style="endArrow=none;html=1;rounded=0;entryX=0.5;entryY=1;entryDx=0;entryDy=0;exitX=0.5;exitY=0;exitDx=0;exitDy=0;" parent="1" source="hoW1CS-x4XJGpvW3vnKM-29" target="hoW1CS-x4XJGpvW3vnKM-27" edge="1">
          <mxGeometry width="50" height="50" relative="1" as="geometry">
            <mxPoint x="260" y="255" as="sourcePoint" />
            <mxPoint x="300" y="195" as="targetPoint" />
          </mxGeometry>
        </mxCell>
        <mxCell id="hoW1CS-x4XJGpvW3vnKM-100" value="" style="endArrow=none;html=1;rounded=0;entryX=0.5;entryY=1;entryDx=0;entryDy=0;" parent="1" target="hoW1CS-x4XJGpvW3vnKM-7" edge="1">
          <mxGeometry width="50" height="50" relative="1" as="geometry">
            <mxPoint x="420" y="15" as="sourcePoint" />
            <mxPoint x="310" y="205" as="targetPoint" />
          </mxGeometry>
        </mxCell>
        <mxCell id="hoW1CS-x4XJGpvW3vnKM-101" value="" style="endArrow=none;html=1;rounded=0;entryX=1;entryY=0.5;entryDx=0;entryDy=0;exitX=0;exitY=0.5;exitDx=0;exitDy=0;" parent="1" source="hoW1CS-x4XJGpvW3vnKM-7" target="hoW1CS-x4XJGpvW3vnKM-22" edge="1">
          <mxGeometry width="50" height="50" relative="1" as="geometry">
            <mxPoint x="280" y="275" as="sourcePoint" />
            <mxPoint x="320" y="215" as="targetPoint" />
            <Array as="points">
              <mxPoint x="240" y="-30" />
            </Array>
          </mxGeometry>
        </mxCell>
        <mxCell id="hoW1CS-x4XJGpvW3vnKM-102" value="" style="endArrow=none;html=1;rounded=0;entryX=0;entryY=1;entryDx=0;entryDy=0;exitX=0.5;exitY=0;exitDx=0;exitDy=0;" parent="1" source="hoW1CS-x4XJGpvW3vnKM-24" target="hoW1CS-x4XJGpvW3vnKM-7" edge="1">
          <mxGeometry width="50" height="50" relative="1" as="geometry">
            <mxPoint x="290" y="285" as="sourcePoint" />
            <mxPoint x="330" y="225" as="targetPoint" />
          </mxGeometry>
        </mxCell>
        <mxCell id="hoW1CS-x4XJGpvW3vnKM-104" value="Has a" style="triangle;whiteSpace=wrap;html=1;verticalAlign=middle;textDirection=rtl;direction=south;labelPosition=center;verticalLabelPosition=middle;align=center;" parent="1" vertex="1">
          <mxGeometry x="-390" y="105" width="110" height="70" as="geometry" />
        </mxCell>
        <mxCell id="hoW1CS-x4XJGpvW3vnKM-105" value="" style="endArrow=none;html=1;rounded=0;entryX=0.5;entryY=1;entryDx=0;entryDy=0;exitX=0;exitY=0.5;exitDx=0;exitDy=0;" parent="1" source="hoW1CS-x4XJGpvW3vnKM-104" target="hoW1CS-x4XJGpvW3vnKM-9" edge="1">
          <mxGeometry width="50" height="50" relative="1" as="geometry">
            <mxPoint x="-20" y="255" as="sourcePoint" />
            <mxPoint x="-105" y="195" as="targetPoint" />
          </mxGeometry>
        </mxCell>
        <mxCell id="hoW1CS-x4XJGpvW3vnKM-106" value="Set makers" style="rounded=0;whiteSpace=wrap;html=1;" parent="1" vertex="1">
          <mxGeometry x="-470" y="180" width="80" height="40" as="geometry" />
        </mxCell>
        <mxCell id="hoW1CS-x4XJGpvW3vnKM-107" value="Make up Artists &amp;amp; Fashion Designer" style="rounded=0;whiteSpace=wrap;html=1;" parent="1" vertex="1">
          <mxGeometry x="-380" y="270" width="110" height="50" as="geometry" />
        </mxCell>
        <mxCell id="hoW1CS-x4XJGpvW3vnKM-108" value="Editors" style="rounded=0;whiteSpace=wrap;html=1;" parent="1" vertex="1">
          <mxGeometry x="-277.5" y="180" width="80" height="40" as="geometry" />
        </mxCell>
        <mxCell id="hoW1CS-x4XJGpvW3vnKM-110" value="" style="endArrow=none;html=1;rounded=0;entryX=1;entryY=0.5;entryDx=0;entryDy=0;exitX=0.5;exitY=0;exitDx=0;exitDy=0;" parent="1" source="hoW1CS-x4XJGpvW3vnKM-106" target="hoW1CS-x4XJGpvW3vnKM-104" edge="1">
          <mxGeometry width="50" height="50" relative="1" as="geometry">
            <mxPoint x="-325" y="180" as="sourcePoint" />
            <mxPoint x="-290" y="135" as="targetPoint" />
          </mxGeometry>
        </mxCell>
        <mxCell id="hoW1CS-x4XJGpvW3vnKM-111" value="" style="endArrow=none;html=1;rounded=0;entryX=0.5;entryY=0;entryDx=0;entryDy=0;exitX=1;exitY=0.5;exitDx=0;exitDy=0;" parent="1" source="hoW1CS-x4XJGpvW3vnKM-104" target="hoW1CS-x4XJGpvW3vnKM-107" edge="1">
          <mxGeometry width="50" height="50" relative="1" as="geometry">
            <mxPoint x="-315" y="190" as="sourcePoint" />
            <mxPoint x="-280" y="145" as="targetPoint" />
          </mxGeometry>
        </mxCell>
        <mxCell id="hoW1CS-x4XJGpvW3vnKM-112" value="" style="endArrow=none;html=1;rounded=0;entryX=1;entryY=0.5;entryDx=0;entryDy=0;exitX=0.5;exitY=0;exitDx=0;exitDy=0;" parent="1" source="hoW1CS-x4XJGpvW3vnKM-108" target="hoW1CS-x4XJGpvW3vnKM-104" edge="1">
          <mxGeometry width="50" height="50" relative="1" as="geometry">
            <mxPoint x="-305" y="200" as="sourcePoint" />
            <mxPoint x="-270" y="155" as="targetPoint" />
          </mxGeometry>
        </mxCell>
        <mxCell id="hoW1CS-x4XJGpvW3vnKM-130" value="d_name" style="ellipse;whiteSpace=wrap;html=1;" parent="1" vertex="1">
          <mxGeometry x="512.5" y="-45" width="75" height="30" as="geometry" />
        </mxCell>
        <mxCell id="hoW1CS-x4XJGpvW3vnKM-131" value="f_name" style="ellipse;whiteSpace=wrap;html=1;" parent="1" vertex="1">
          <mxGeometry x="610" y="-112.5" width="75" height="30" as="geometry" />
        </mxCell>
        <mxCell id="hoW1CS-x4XJGpvW3vnKM-132" value="m_name" style="ellipse;whiteSpace=wrap;html=1;" parent="1" vertex="1">
          <mxGeometry x="615" y="-62.5" width="75" height="30" as="geometry" />
        </mxCell>
        <mxCell id="hoW1CS-x4XJGpvW3vnKM-133" value="l_name" style="ellipse;whiteSpace=wrap;html=1;" parent="1" vertex="1">
          <mxGeometry x="615" y="-7.5" width="75" height="30" as="geometry" />
        </mxCell>
        <mxCell id="hoW1CS-x4XJGpvW3vnKM-134" value="d_email" style="ellipse;whiteSpace=wrap;html=1;" parent="1" vertex="1">
          <mxGeometry x="510" y="5" width="75" height="30" as="geometry" />
        </mxCell>
        <mxCell id="hoW1CS-x4XJGpvW3vnKM-135" value="" style="endArrow=none;html=1;rounded=0;exitX=1;exitY=0;exitDx=0;exitDy=0;entryX=0;entryY=1;entryDx=0;entryDy=0;" parent="1" source="hoW1CS-x4XJGpvW3vnKM-130" target="hoW1CS-x4XJGpvW3vnKM-131" edge="1">
          <mxGeometry width="50" height="50" relative="1" as="geometry">
            <mxPoint x="520" y="-62.5" as="sourcePoint" />
            <mxPoint x="608" y="-82.5" as="targetPoint" />
          </mxGeometry>
        </mxCell>
        <mxCell id="hoW1CS-x4XJGpvW3vnKM-136" value="" style="endArrow=none;html=1;rounded=0;exitX=1;exitY=0.5;exitDx=0;exitDy=0;entryX=0;entryY=0.5;entryDx=0;entryDy=0;" parent="1" source="hoW1CS-x4XJGpvW3vnKM-130" target="hoW1CS-x4XJGpvW3vnKM-132" edge="1">
          <mxGeometry width="50" height="50" relative="1" as="geometry">
            <mxPoint x="500" y="122.5" as="sourcePoint" />
            <mxPoint x="588" y="102.5" as="targetPoint" />
          </mxGeometry>
        </mxCell>
        <mxCell id="hoW1CS-x4XJGpvW3vnKM-137" value="" style="endArrow=none;html=1;rounded=0;exitX=1;exitY=1;exitDx=0;exitDy=0;entryX=0;entryY=0.5;entryDx=0;entryDy=0;" parent="1" source="hoW1CS-x4XJGpvW3vnKM-130" target="hoW1CS-x4XJGpvW3vnKM-133" edge="1">
          <mxGeometry width="50" height="50" relative="1" as="geometry">
            <mxPoint x="510" y="132.5" as="sourcePoint" />
            <mxPoint x="598" y="112.5" as="targetPoint" />
          </mxGeometry>
        </mxCell>
        <mxCell id="hoW1CS-x4XJGpvW3vnKM-140" value="" style="ellipse;whiteSpace=wrap;html=1;" parent="1" vertex="1">
          <mxGeometry x="372.5" y="-122.5" width="95" height="40" as="geometry" />
        </mxCell>
        <mxCell id="hoW1CS-x4XJGpvW3vnKM-141" value="d_age" style="ellipse;whiteSpace=wrap;html=1;" parent="1" vertex="1">
          <mxGeometry x="495" y="-125" width="75" height="30" as="geometry" />
        </mxCell>
        <mxCell id="hoW1CS-x4XJGpvW3vnKM-143" value="&lt;p&gt;d_phno&lt;/p&gt;" style="ellipse;whiteSpace=wrap;html=1;" parent="1" vertex="1">
          <mxGeometry x="382.5" y="-117.5" width="75" height="30" as="geometry" />
        </mxCell>
        <mxCell id="hoW1CS-x4XJGpvW3vnKM-144" value="" style="endArrow=none;html=1;rounded=0;exitX=1;exitY=0;exitDx=0;exitDy=0;entryX=0.412;entryY=0.964;entryDx=0;entryDy=0;entryPerimeter=0;" parent="1" source="hoW1CS-x4XJGpvW3vnKM-7" target="hoW1CS-x4XJGpvW3vnKM-141" edge="1">
          <mxGeometry width="50" height="50" relative="1" as="geometry">
            <mxPoint x="535" y="-95" as="sourcePoint" />
            <mxPoint x="557" y="-175" as="targetPoint" />
          </mxGeometry>
        </mxCell>
        <mxCell id="hoW1CS-x4XJGpvW3vnKM-146" value="" style="endArrow=none;html=1;rounded=0;exitX=0.5;exitY=0;exitDx=0;exitDy=0;entryX=0.5;entryY=1;entryDx=0;entryDy=0;" parent="1" source="hoW1CS-x4XJGpvW3vnKM-7" target="hoW1CS-x4XJGpvW3vnKM-140" edge="1">
          <mxGeometry width="50" height="50" relative="1" as="geometry">
            <mxPoint x="520" y="-102.5" as="sourcePoint" />
            <mxPoint x="480" y="-102.5" as="targetPoint" />
          </mxGeometry>
        </mxCell>
        <mxCell id="hoW1CS-x4XJGpvW3vnKM-148" value="" style="endArrow=none;html=1;rounded=0;exitX=1;exitY=0.5;exitDx=0;exitDy=0;entryX=0;entryY=0.5;entryDx=0;entryDy=0;" parent="1" source="hoW1CS-x4XJGpvW3vnKM-7" target="hoW1CS-x4XJGpvW3vnKM-130" edge="1">
          <mxGeometry width="50" height="50" relative="1" as="geometry">
            <mxPoint x="470" y="5" as="sourcePoint" />
            <mxPoint x="520" y="30" as="targetPoint" />
          </mxGeometry>
        </mxCell>
        <mxCell id="hoW1CS-x4XJGpvW3vnKM-149" value="&lt;u&gt;f_id&lt;/u&gt;" style="ellipse;whiteSpace=wrap;html=1;" parent="1" vertex="1">
          <mxGeometry x="-340" y="-225" width="75" height="30" as="geometry" />
        </mxCell>
        <mxCell id="hoW1CS-x4XJGpvW3vnKM-150" value="assigned_budget" style="ellipse;whiteSpace=wrap;html=1;" parent="1" vertex="1">
          <mxGeometry x="-490" y="-205" width="130" height="35" as="geometry" />
        </mxCell>
        <mxCell id="hoW1CS-x4XJGpvW3vnKM-153" value="" style="ellipse;whiteSpace=wrap;html=1;" parent="1" vertex="1">
          <mxGeometry x="-520" y="-135" width="95" height="40" as="geometry" />
        </mxCell>
        <mxCell id="hoW1CS-x4XJGpvW3vnKM-154" value="&lt;p&gt;f_phno&lt;/p&gt;" style="ellipse;whiteSpace=wrap;html=1;" parent="1" vertex="1">
          <mxGeometry x="-510" y="-130" width="75" height="30" as="geometry" />
        </mxCell>
        <mxCell id="hoW1CS-x4XJGpvW3vnKM-155" value="" style="endArrow=none;html=1;rounded=0;exitX=0.5;exitY=0;exitDx=0;exitDy=0;entryX=0.5;entryY=1;entryDx=0;entryDy=0;" parent="1" source="hoW1CS-x4XJGpvW3vnKM-8" target="hoW1CS-x4XJGpvW3vnKM-149" edge="1">
          <mxGeometry width="50" height="50" relative="1" as="geometry">
            <mxPoint x="-200" y="-140" as="sourcePoint" />
            <mxPoint x="-310" y="-175" as="targetPoint" />
          </mxGeometry>
        </mxCell>
        <mxCell id="hoW1CS-x4XJGpvW3vnKM-156" value="" style="endArrow=none;html=1;rounded=0;exitX=0.25;exitY=0;exitDx=0;exitDy=0;entryX=1;entryY=1;entryDx=0;entryDy=0;" parent="1" source="hoW1CS-x4XJGpvW3vnKM-8" target="hoW1CS-x4XJGpvW3vnKM-150" edge="1">
          <mxGeometry width="50" height="50" relative="1" as="geometry">
            <mxPoint x="-270" y="-85" as="sourcePoint" />
            <mxPoint x="-292" y="-185" as="targetPoint" />
          </mxGeometry>
        </mxCell>
        <mxCell id="hoW1CS-x4XJGpvW3vnKM-157" value="" style="endArrow=none;html=1;rounded=0;exitX=0;exitY=0;exitDx=0;exitDy=0;entryX=1;entryY=0.5;entryDx=0;entryDy=0;" parent="1" source="hoW1CS-x4XJGpvW3vnKM-8" target="hoW1CS-x4XJGpvW3vnKM-153" edge="1">
          <mxGeometry width="50" height="50" relative="1" as="geometry">
            <mxPoint x="-260" y="-75" as="sourcePoint" />
            <mxPoint x="-282" y="-175" as="targetPoint" />
          </mxGeometry>
        </mxCell>
        <mxCell id="hoW1CS-x4XJGpvW3vnKM-158" value="&lt;u&gt;m_id&lt;/u&gt;" style="ellipse;whiteSpace=wrap;html=1;" parent="1" vertex="1">
          <mxGeometry x="630" y="-330" width="75" height="30" as="geometry" />
        </mxCell>
        <mxCell id="hoW1CS-x4XJGpvW3vnKM-159" value="m_budget" style="ellipse;whiteSpace=wrap;html=1;" parent="1" vertex="1">
          <mxGeometry x="482.5" y="-305" width="130" height="35" as="geometry" />
        </mxCell>
        <mxCell id="hoW1CS-x4XJGpvW3vnKM-160" value="" style="ellipse;whiteSpace=wrap;html=1;" parent="1" vertex="1">
          <mxGeometry x="450" y="-240" width="95" height="40" as="geometry" />
        </mxCell>
        <mxCell id="hoW1CS-x4XJGpvW3vnKM-161" value="&lt;p&gt;m_phno&lt;/p&gt;" style="ellipse;whiteSpace=wrap;html=1;" parent="1" vertex="1">
          <mxGeometry x="460" y="-235" width="75" height="30" as="geometry" />
        </mxCell>
        <mxCell id="hoW1CS-x4XJGpvW3vnKM-162" value="" style="endArrow=none;html=1;rounded=0;exitX=0.75;exitY=0;exitDx=0;exitDy=0;entryX=0.5;entryY=1;entryDx=0;entryDy=0;" parent="1" source="hoW1CS-x4XJGpvW3vnKM-6" target="hoW1CS-x4XJGpvW3vnKM-158" edge="1">
          <mxGeometry width="50" height="50" relative="1" as="geometry">
            <mxPoint x="690" y="-200" as="sourcePoint" />
            <mxPoint x="660" y="-280" as="targetPoint" />
          </mxGeometry>
        </mxCell>
        <mxCell id="hoW1CS-x4XJGpvW3vnKM-163" value="" style="endArrow=none;html=1;rounded=0;exitX=0.5;exitY=0;exitDx=0;exitDy=0;entryX=1;entryY=1;entryDx=0;entryDy=0;" parent="1" source="hoW1CS-x4XJGpvW3vnKM-6" target="hoW1CS-x4XJGpvW3vnKM-159" edge="1">
          <mxGeometry width="50" height="50" relative="1" as="geometry">
            <mxPoint x="670" y="-200" as="sourcePoint" />
            <mxPoint x="678" y="-290" as="targetPoint" />
          </mxGeometry>
        </mxCell>
        <mxCell id="hoW1CS-x4XJGpvW3vnKM-164" value="" style="endArrow=none;html=1;rounded=0;entryX=1;entryY=0.5;entryDx=0;entryDy=0;exitX=0;exitY=0;exitDx=0;exitDy=0;" parent="1" source="hoW1CS-x4XJGpvW3vnKM-6" edge="1">
          <mxGeometry width="50" height="50" relative="1" as="geometry">
            <mxPoint x="630" y="-182" as="sourcePoint" />
            <mxPoint x="545" y="-220" as="targetPoint" />
          </mxGeometry>
        </mxCell>
        <mxCell id="hoW1CS-x4XJGpvW3vnKM-165" value="" style="endArrow=none;html=1;rounded=0;exitX=0.5;exitY=0;exitDx=0;exitDy=0;entryX=1;entryY=0.5;entryDx=0;entryDy=0;" parent="1" source="hoW1CS-x4XJGpvW3vnKM-64" target="hoW1CS-x4XJGpvW3vnKM-6" edge="1">
          <mxGeometry width="50" height="50" relative="1" as="geometry">
            <mxPoint x="587" y="-31" as="sourcePoint" />
            <mxPoint x="618" y="-72.5" as="targetPoint" />
            <Array as="points">
              <mxPoint x="840" y="-165" />
            </Array>
          </mxGeometry>
        </mxCell>
        <mxCell id="hoW1CS-x4XJGpvW3vnKM-166" value="m_timeframe" style="ellipse;whiteSpace=wrap;html=1;" parent="1" vertex="1">
          <mxGeometry x="750" y="-305" width="130" height="35" as="geometry" />
        </mxCell>
        <mxCell id="hoW1CS-x4XJGpvW3vnKM-167" value="" style="endArrow=none;html=1;rounded=0;exitX=1;exitY=0;exitDx=0;exitDy=0;entryX=0.5;entryY=1;entryDx=0;entryDy=0;" parent="1" source="hoW1CS-x4XJGpvW3vnKM-6" target="hoW1CS-x4XJGpvW3vnKM-166" edge="1">
          <mxGeometry width="50" height="50" relative="1" as="geometry">
            <mxPoint x="695" y="-175" as="sourcePoint" />
            <mxPoint x="678" y="-290" as="targetPoint" />
          </mxGeometry>
        </mxCell>
        <mxCell id="hoW1CS-x4XJGpvW3vnKM-174" value="&lt;u&gt;f_id&lt;/u&gt;" style="ellipse;whiteSpace=wrap;html=1;" parent="1" vertex="1">
          <mxGeometry x="105.00000000000011" y="480" width="75" height="30" as="geometry" />
        </mxCell>
        <mxCell id="hoW1CS-x4XJGpvW3vnKM-175" value="f_releasedate" style="ellipse;whiteSpace=wrap;html=1;" parent="1" vertex="1">
          <mxGeometry x="-9.999999999999886" y="570" width="130" height="35" as="geometry" />
        </mxCell>
        <mxCell id="hoW1CS-x4XJGpvW3vnKM-176" value="f_length" style="ellipse;whiteSpace=wrap;html=1;" parent="1" vertex="1">
          <mxGeometry x="77.50000000000011" y="535" width="130" height="35" as="geometry" />
        </mxCell>
        <mxCell id="_W56uVr0fT6QvAU-Cikb-1" value="f_name" style="ellipse;whiteSpace=wrap;html=1;" parent="1" vertex="1">
          <mxGeometry x="-252.4999999999999" y="535" width="130" height="35" as="geometry" />
        </mxCell>
        <mxCell id="_W56uVr0fT6QvAU-Cikb-2" value="" style="endArrow=none;html=1;rounded=0;entryX=0.5;entryY=0;entryDx=0;entryDy=0;exitX=0.5;exitY=1;exitDx=0;exitDy=0;" parent="1" source="hoW1CS-x4XJGpvW3vnKM-2" target="_W56uVr0fT6QvAU-Cikb-1" edge="1">
          <mxGeometry width="50" height="50" relative="1" as="geometry">
            <mxPoint x="10" y="470" as="sourcePoint" />
            <mxPoint x="-155" y="470" as="targetPoint" />
          </mxGeometry>
        </mxCell>
        <mxCell id="_W56uVr0fT6QvAU-Cikb-3" value="a_venue" style="ellipse;whiteSpace=wrap;html=1;" parent="1" vertex="1">
          <mxGeometry x="625" y="115" width="75" height="30" as="geometry" />
        </mxCell>
        <mxCell id="_W56uVr0fT6QvAU-Cikb-5" value="&lt;u&gt;a_id&lt;/u&gt;" style="ellipse;whiteSpace=wrap;html=1;" parent="1" vertex="1">
          <mxGeometry x="720" y="185" width="75" height="30" as="geometry" />
        </mxCell>
        <mxCell id="_W56uVr0fT6QvAU-Cikb-6" value="audtionee" style="ellipse;whiteSpace=wrap;html=1;" parent="1" vertex="1">
          <mxGeometry x="625" y="225" width="75" height="30" as="geometry" />
        </mxCell>
        <mxCell id="_W56uVr0fT6QvAU-Cikb-7" value="" style="endArrow=none;html=1;rounded=0;entryX=0.5;entryY=0;entryDx=0;entryDy=0;exitX=0.5;exitY=1;exitDx=0;exitDy=0;" parent="1" source="_W56uVr0fT6QvAU-Cikb-3" target="hoW1CS-x4XJGpvW3vnKM-11" edge="1">
          <mxGeometry width="50" height="50" relative="1" as="geometry">
            <mxPoint x="633" y="195" as="sourcePoint" />
            <mxPoint x="598" y="195" as="targetPoint" />
          </mxGeometry>
        </mxCell>
        <mxCell id="_W56uVr0fT6QvAU-Cikb-9" value="" style="endArrow=none;html=1;rounded=0;entryX=1.012;entryY=0.432;entryDx=0;entryDy=0;exitX=0.02;exitY=0.53;exitDx=0;exitDy=0;exitPerimeter=0;entryPerimeter=0;" parent="1" source="_W56uVr0fT6QvAU-Cikb-5" target="hoW1CS-x4XJGpvW3vnKM-11" edge="1">
          <mxGeometry width="50" height="50" relative="1" as="geometry">
            <mxPoint x="673" y="155" as="sourcePoint" />
            <mxPoint x="673" y="175" as="targetPoint" />
          </mxGeometry>
        </mxCell>
        <mxCell id="_W56uVr0fT6QvAU-Cikb-11" value="" style="endArrow=none;html=1;rounded=0;entryX=0.5;entryY=1;entryDx=0;entryDy=0;exitX=0.5;exitY=0;exitDx=0;exitDy=0;" parent="1" source="_W56uVr0fT6QvAU-Cikb-6" target="hoW1CS-x4XJGpvW3vnKM-11" edge="1">
          <mxGeometry width="50" height="50" relative="1" as="geometry">
            <mxPoint x="732" y="196" as="sourcePoint" />
            <mxPoint x="713" y="192" as="targetPoint" />
          </mxGeometry>
        </mxCell>
        <mxCell id="_W56uVr0fT6QvAU-Cikb-12" value="&lt;u&gt;c_id&lt;/u&gt;" style="ellipse;whiteSpace=wrap;html=1;" parent="1" vertex="1">
          <mxGeometry x="367.5" y="115" width="75" height="30" as="geometry" />
        </mxCell>
        <mxCell id="_W56uVr0fT6QvAU-Cikb-13" value="c_name" style="ellipse;whiteSpace=wrap;html=1;" parent="1" vertex="1">
          <mxGeometry x="277.5" y="170" width="75" height="30" as="geometry" />
        </mxCell>
        <mxCell id="_W56uVr0fT6QvAU-Cikb-15" value="" style="endArrow=none;html=1;rounded=0;exitX=0.5;exitY=0;exitDx=0;exitDy=0;entryX=0.5;entryY=1;entryDx=0;entryDy=0;" parent="1" source="hoW1CS-x4XJGpvW3vnKM-4" target="_W56uVr0fT6QvAU-Cikb-12" edge="1">
          <mxGeometry width="50" height="50" relative="1" as="geometry">
            <mxPoint x="453" y="195" as="sourcePoint" />
            <mxPoint x="488" y="195" as="targetPoint" />
          </mxGeometry>
        </mxCell>
        <mxCell id="_W56uVr0fT6QvAU-Cikb-16" value="" style="endArrow=none;html=1;rounded=0;exitX=0.5;exitY=0;exitDx=0;exitDy=0;entryX=0.5;entryY=1;entryDx=0;entryDy=0;" parent="1" source="AbsimfLk_RCkw9cmsR7M-16" target="hoW1CS-x4XJGpvW3vnKM-4" edge="1">
          <mxGeometry width="50" height="50" relative="1" as="geometry">
            <mxPoint x="445.0000000000002" y="220" as="sourcePoint" />
            <mxPoint x="415" y="155" as="targetPoint" />
          </mxGeometry>
        </mxCell>
        <mxCell id="_W56uVr0fT6QvAU-Cikb-17" value="" style="endArrow=none;html=1;rounded=0;exitX=0;exitY=0.5;exitDx=0;exitDy=0;entryX=1;entryY=0.5;entryDx=0;entryDy=0;" parent="1" source="hoW1CS-x4XJGpvW3vnKM-4" target="_W56uVr0fT6QvAU-Cikb-13" edge="1">
          <mxGeometry width="50" height="50" relative="1" as="geometry">
            <mxPoint x="423" y="185" as="sourcePoint" />
            <mxPoint x="425" y="165" as="targetPoint" />
          </mxGeometry>
        </mxCell>
        <mxCell id="_W56uVr0fT6QvAU-Cikb-18" value="&lt;u&gt;sw_id&lt;/u&gt;" style="ellipse;whiteSpace=wrap;html=1;" parent="1" vertex="1">
          <mxGeometry x="-47.5" y="-8.75" width="70" height="25" as="geometry" />
        </mxCell>
        <mxCell id="_W56uVr0fT6QvAU-Cikb-19" value="sw_name" style="ellipse;whiteSpace=wrap;html=1;" parent="1" vertex="1">
          <mxGeometry x="62.5" y="-7.5" width="72.5" height="25" as="geometry" />
        </mxCell>
        <mxCell id="ztzSCrT_-gO-KoaSvvsn-2" value="script_id" style="ellipse;whiteSpace=wrap;html=1;" parent="1" vertex="1">
          <mxGeometry x="-110" y="25" width="70" height="25" as="geometry" />
        </mxCell>
        <mxCell id="ztzSCrT_-gO-KoaSvvsn-3" value="script_name" style="ellipse;whiteSpace=wrap;html=1;" parent="1" vertex="1">
          <mxGeometry x="-72.5" y="73.75" width="70" height="25" as="geometry" />
        </mxCell>
        <mxCell id="ztzSCrT_-gO-KoaSvvsn-4" value="" style="endArrow=none;html=1;rounded=0;entryX=0.5;entryY=1;entryDx=0;entryDy=0;exitX=1;exitY=0;exitDx=0;exitDy=0;" parent="1" source="hoW1CS-x4XJGpvW3vnKM-10" target="_W56uVr0fT6QvAU-Cikb-19" edge="1">
          <mxGeometry width="50" height="50" relative="1" as="geometry">
            <mxPoint x="48" y="36.25" as="sourcePoint" />
            <mxPoint x="115" y="-63.75" as="targetPoint" />
          </mxGeometry>
        </mxCell>
        <mxCell id="ztzSCrT_-gO-KoaSvvsn-5" value="" style="endArrow=none;html=1;rounded=0;entryX=0.5;entryY=1;entryDx=0;entryDy=0;exitX=0.25;exitY=0;exitDx=0;exitDy=0;" parent="1" source="hoW1CS-x4XJGpvW3vnKM-10" target="_W56uVr0fT6QvAU-Cikb-18" edge="1">
          <mxGeometry width="50" height="50" relative="1" as="geometry">
            <mxPoint x="88" y="36.25" as="sourcePoint" />
            <mxPoint x="106" y="31.25" as="targetPoint" />
          </mxGeometry>
        </mxCell>
        <mxCell id="ztzSCrT_-gO-KoaSvvsn-6" value="" style="endArrow=none;html=1;rounded=0;entryX=0.25;entryY=1;entryDx=0;entryDy=0;exitX=1;exitY=0.5;exitDx=0;exitDy=0;" parent="1" source="ztzSCrT_-gO-KoaSvvsn-3" target="hoW1CS-x4XJGpvW3vnKM-10" edge="1">
          <mxGeometry width="50" height="50" relative="1" as="geometry">
            <mxPoint x="98" y="46.25" as="sourcePoint" />
            <mxPoint x="116" y="41.25" as="targetPoint" />
          </mxGeometry>
        </mxCell>
        <mxCell id="ztzSCrT_-gO-KoaSvvsn-7" value="" style="endArrow=none;html=1;rounded=0;entryX=1;entryY=0.5;entryDx=0;entryDy=0;exitX=0;exitY=0.5;exitDx=0;exitDy=0;" parent="1" source="hoW1CS-x4XJGpvW3vnKM-10" target="ztzSCrT_-gO-KoaSvvsn-2" edge="1">
          <mxGeometry width="50" height="50" relative="1" as="geometry">
            <mxPoint x="108" y="56.25" as="sourcePoint" />
            <mxPoint x="-35" y="41.24999999999977" as="targetPoint" />
          </mxGeometry>
        </mxCell>
        <mxCell id="AbsimfLk_RCkw9cmsR7M-5" value="start_&lt;span style=&quot;font-size:11.0pt;line-height:&lt;br/&gt;107%;font-family:&amp;quot;Times New Roman&amp;quot;,&amp;quot;serif&amp;quot;;mso-fareast-font-family:Calibri;&lt;br/&gt;mso-fareast-theme-font:minor-latin;mso-ansi-language:EN-IN;mso-fareast-language:&lt;br/&gt;EN-US;mso-bidi-language:AR-SA&quot; lang=&quot;EN-IN&quot;&gt;date&lt;/span&gt;" style="ellipse;whiteSpace=wrap;html=1;" parent="1" vertex="1">
          <mxGeometry x="890" y="-370" width="75" height="30" as="geometry" />
        </mxCell>
        <mxCell id="AbsimfLk_RCkw9cmsR7M-6" value="end_&lt;span style=&quot;font-size:11.0pt;line-height:&lt;br/&gt;107%;font-family:&amp;quot;Times New Roman&amp;quot;,&amp;quot;serif&amp;quot;;mso-fareast-font-family:Calibri;&lt;br/&gt;mso-fareast-theme-font:minor-latin;mso-ansi-language:EN-IN;mso-fareast-language:&lt;br/&gt;EN-US;mso-bidi-language:AR-SA&quot; lang=&quot;EN-IN&quot;&gt;date&lt;/span&gt;" style="ellipse;whiteSpace=wrap;html=1;" parent="1" vertex="1">
          <mxGeometry x="910" y="-305" width="75" height="30" as="geometry" />
        </mxCell>
        <mxCell id="AbsimfLk_RCkw9cmsR7M-8" value="" style="endArrow=none;html=1;rounded=0;exitX=0.5;exitY=0;exitDx=0;exitDy=0;entryX=0;entryY=0.5;entryDx=0;entryDy=0;" parent="1" source="hoW1CS-x4XJGpvW3vnKM-166" target="AbsimfLk_RCkw9cmsR7M-5" edge="1">
          <mxGeometry width="50" height="50" relative="1" as="geometry">
            <mxPoint x="830" y="-193" as="sourcePoint" />
            <mxPoint x="874" y="-240" as="targetPoint" />
          </mxGeometry>
        </mxCell>
        <mxCell id="AbsimfLk_RCkw9cmsR7M-9" value="" style="endArrow=none;html=1;rounded=0;exitX=1;exitY=0.5;exitDx=0;exitDy=0;entryX=0;entryY=0.5;entryDx=0;entryDy=0;" parent="1" source="hoW1CS-x4XJGpvW3vnKM-166" target="AbsimfLk_RCkw9cmsR7M-6" edge="1">
          <mxGeometry width="50" height="50" relative="1" as="geometry">
            <mxPoint x="840" y="-183" as="sourcePoint" />
            <mxPoint x="884" y="-230" as="targetPoint" />
          </mxGeometry>
        </mxCell>
        <mxCell id="AbsimfLk_RCkw9cmsR7M-10" value="&lt;u&gt;d_id&lt;/u&gt;" style="ellipse;whiteSpace=wrap;html=1;" parent="1" vertex="1">
          <mxGeometry x="280" y="-100" width="75" height="30" as="geometry" />
        </mxCell>
        <mxCell id="AbsimfLk_RCkw9cmsR7M-11" value="" style="endArrow=none;html=1;rounded=0;exitX=0;exitY=0;exitDx=0;exitDy=0;entryX=1;entryY=0.5;entryDx=0;entryDy=0;" parent="1" source="hoW1CS-x4XJGpvW3vnKM-7" target="AbsimfLk_RCkw9cmsR7M-10" edge="1">
          <mxGeometry width="50" height="50" relative="1" as="geometry">
            <mxPoint x="430" y="-35" as="sourcePoint" />
            <mxPoint x="430" y="-72" as="targetPoint" />
          </mxGeometry>
        </mxCell>
        <mxCell id="AbsimfLk_RCkw9cmsR7M-16" value="" style="ellipse;whiteSpace=wrap;html=1;" parent="1" vertex="1">
          <mxGeometry x="405" y="225" width="95" height="40" as="geometry" />
        </mxCell>
        <mxCell id="AbsimfLk_RCkw9cmsR7M-17" value="&lt;p&gt;role&lt;/p&gt;" style="ellipse;whiteSpace=wrap;html=1;" parent="1" vertex="1">
          <mxGeometry x="415" y="230" width="75" height="30" as="geometry" />
        </mxCell>
        <mxCell id="AbsimfLk_RCkw9cmsR7M-18" value="a_date" style="ellipse;whiteSpace=wrap;html=1;" parent="1" vertex="1">
          <mxGeometry x="710" y="125" width="75" height="30" as="geometry" />
        </mxCell>
        <mxCell id="AbsimfLk_RCkw9cmsR7M-19" value="" style="endArrow=none;html=1;rounded=0;exitX=0.5;exitY=1;exitDx=0;exitDy=0;entryX=1;entryY=0.5;entryDx=0;entryDy=0;" parent="1" source="AbsimfLk_RCkw9cmsR7M-18" target="hoW1CS-x4XJGpvW3vnKM-11" edge="1">
          <mxGeometry width="50" height="50" relative="1" as="geometry">
            <mxPoint x="732" y="211" as="sourcePoint" />
            <mxPoint x="710" y="185" as="targetPoint" />
          </mxGeometry>
        </mxCell>
        <mxCell id="AbsimfLk_RCkw9cmsR7M-21" value="&lt;u&gt;a_id&lt;/u&gt;" style="ellipse;whiteSpace=wrap;html=1;" parent="1" vertex="1">
          <mxGeometry x="540" y="255" width="75" height="30" as="geometry" />
        </mxCell>
        <mxCell id="AbsimfLk_RCkw9cmsR7M-22" value="&lt;u&gt;a_id&lt;/u&gt;" style="ellipse;whiteSpace=wrap;html=1;" parent="1" vertex="1">
          <mxGeometry x="615" y="280" width="75" height="30" as="geometry" />
        </mxCell>
        <mxCell id="AbsimfLk_RCkw9cmsR7M-23" value="&lt;u&gt;a_id&lt;/u&gt;" style="ellipse;whiteSpace=wrap;html=1;" parent="1" vertex="1">
          <mxGeometry x="700" y="255" width="75" height="30" as="geometry" />
        </mxCell>
        <mxCell id="AbsimfLk_RCkw9cmsR7M-24" value="" style="endArrow=none;html=1;rounded=0;entryX=0.5;entryY=1;entryDx=0;entryDy=0;exitX=0.5;exitY=0;exitDx=0;exitDy=0;" parent="1" source="AbsimfLk_RCkw9cmsR7M-22" target="_W56uVr0fT6QvAU-Cikb-6" edge="1">
          <mxGeometry width="50" height="50" relative="1" as="geometry">
            <mxPoint x="732" y="211" as="sourcePoint" />
            <mxPoint x="713" y="192" as="targetPoint" />
          </mxGeometry>
        </mxCell>
        <mxCell id="AbsimfLk_RCkw9cmsR7M-25" value="" style="endArrow=none;html=1;rounded=0;entryX=1;entryY=1;entryDx=0;entryDy=0;exitX=0;exitY=0.5;exitDx=0;exitDy=0;" parent="1" source="AbsimfLk_RCkw9cmsR7M-23" target="_W56uVr0fT6QvAU-Cikb-6" edge="1">
          <mxGeometry width="50" height="50" relative="1" as="geometry">
            <mxPoint x="663" y="290" as="sourcePoint" />
            <mxPoint x="673" y="265" as="targetPoint" />
          </mxGeometry>
        </mxCell>
        <mxCell id="AbsimfLk_RCkw9cmsR7M-26" value="" style="endArrow=none;html=1;rounded=0;entryX=0;entryY=1;entryDx=0;entryDy=0;exitX=0.971;exitY=0.371;exitDx=0;exitDy=0;exitPerimeter=0;" parent="1" source="AbsimfLk_RCkw9cmsR7M-21" target="_W56uVr0fT6QvAU-Cikb-6" edge="1">
          <mxGeometry width="50" height="50" relative="1" as="geometry">
            <mxPoint x="673" y="300" as="sourcePoint" />
            <mxPoint x="683" y="275" as="targetPoint" />
          </mxGeometry>
        </mxCell>
        <mxCell id="AbsimfLk_RCkw9cmsR7M-28" value="" style="endArrow=none;html=1;rounded=0;exitX=0.25;exitY=1;exitDx=0;exitDy=0;entryX=1;entryY=0.5;entryDx=0;entryDy=0;" parent="1" source="hoW1CS-x4XJGpvW3vnKM-5" target="hoW1CS-x4XJGpvW3vnKM-14" edge="1">
          <mxGeometry width="50" height="50" relative="1" as="geometry">
            <mxPoint x="85" y="-270" as="sourcePoint" />
            <mxPoint x="-7" y="-346" as="targetPoint" />
            <Array as="points">
              <mxPoint x="50" y="-170" />
              <mxPoint x="-170" y="-170" />
              <mxPoint x="-170" y="-330" />
            </Array>
          </mxGeometry>
        </mxCell>
        <mxCell id="wkYLRUmF6i7sBflsOoCC-1" value="script_name" style="ellipse;whiteSpace=wrap;html=1;" parent="1" vertex="1">
          <mxGeometry x="-540" y="240" width="70" height="25" as="geometry" />
        </mxCell>
        <mxCell id="wkYLRUmF6i7sBflsOoCC-8" value="script_name" style="ellipse;whiteSpace=wrap;html=1;" parent="1" vertex="1">
          <mxGeometry x="-460" y="255" width="70" height="25" as="geometry" />
        </mxCell>
        <mxCell id="wkYLRUmF6i7sBflsOoCC-9" value="script_name" style="ellipse;whiteSpace=wrap;html=1;" parent="1" vertex="1">
          <mxGeometry x="-300" y="355" width="70" height="25" as="geometry" />
        </mxCell>
        <mxCell id="wkYLRUmF6i7sBflsOoCC-10" value="script_name" style="ellipse;whiteSpace=wrap;html=1;" parent="1" vertex="1">
          <mxGeometry x="-450" y="340" width="70" height="25" as="geometry" />
        </mxCell>
        <mxCell id="wkYLRUmF6i7sBflsOoCC-11" value="script_name" style="ellipse;whiteSpace=wrap;html=1;" parent="1" vertex="1">
          <mxGeometry x="-380" y="355" width="70" height="25" as="geometry" />
        </mxCell>
        <mxCell id="wkYLRUmF6i7sBflsOoCC-12" value="script_name" style="ellipse;whiteSpace=wrap;html=1;" parent="1" vertex="1">
          <mxGeometry x="-230" y="340" width="70" height="25" as="geometry" />
        </mxCell>
        <mxCell id="wkYLRUmF6i7sBflsOoCC-13" value="script_name" style="ellipse;whiteSpace=wrap;html=1;" parent="1" vertex="1">
          <mxGeometry x="-260" y="235" width="70" height="25" as="geometry" />
        </mxCell>
        <mxCell id="wkYLRUmF6i7sBflsOoCC-14" value="script_name" style="ellipse;whiteSpace=wrap;html=1;" parent="1" vertex="1">
          <mxGeometry x="-180" y="220" width="70" height="25" as="geometry" />
        </mxCell>
        <mxCell id="wkYLRUmF6i7sBflsOoCC-16" value="" style="endArrow=none;html=1;rounded=0;entryX=1;entryY=0.5;entryDx=0;entryDy=0;exitX=0.5;exitY=0;exitDx=0;exitDy=0;" parent="1" source="wkYLRUmF6i7sBflsOoCC-14" target="hoW1CS-x4XJGpvW3vnKM-108" edge="1">
          <mxGeometry width="50" height="50" relative="1" as="geometry">
            <mxPoint x="-227.5" y="190" as="sourcePoint" />
            <mxPoint x="-367.5" y="145" as="targetPoint" />
          </mxGeometry>
        </mxCell>
        <mxCell id="wkYLRUmF6i7sBflsOoCC-17" value="" style="endArrow=none;html=1;rounded=0;entryX=0.5;entryY=1;entryDx=0;entryDy=0;exitX=0.429;exitY=0;exitDx=0;exitDy=0;exitPerimeter=0;" parent="1" source="wkYLRUmF6i7sBflsOoCC-13" target="hoW1CS-x4XJGpvW3vnKM-108" edge="1">
          <mxGeometry width="50" height="50" relative="1" as="geometry">
            <mxPoint x="-134.5" y="230" as="sourcePoint" />
            <mxPoint x="-187.5" y="230" as="targetPoint" />
          </mxGeometry>
        </mxCell>
        <mxCell id="wkYLRUmF6i7sBflsOoCC-18" value="" style="endArrow=none;html=1;rounded=0;exitX=0.727;exitY=1;exitDx=0;exitDy=0;exitPerimeter=0;entryX=0.5;entryY=0;entryDx=0;entryDy=0;" parent="1" source="hoW1CS-x4XJGpvW3vnKM-107" edge="1" target="wkYLRUmF6i7sBflsOoCC-9">
          <mxGeometry width="50" height="50" relative="1" as="geometry">
            <mxPoint x="-230" y="420" as="sourcePoint" />
            <mxPoint x="-303" y="380" as="targetPoint" />
          </mxGeometry>
        </mxCell>
        <mxCell id="wkYLRUmF6i7sBflsOoCC-19" value="" style="endArrow=none;html=1;rounded=0;entryX=0.665;entryY=0.053;entryDx=0;entryDy=0;exitX=0.365;exitY=1.011;exitDx=0;exitDy=0;exitPerimeter=0;entryPerimeter=0;" parent="1" source="hoW1CS-x4XJGpvW3vnKM-107" target="wkYLRUmF6i7sBflsOoCC-11" edge="1">
          <mxGeometry width="50" height="50" relative="1" as="geometry">
            <mxPoint x="-235" y="405" as="sourcePoint" />
            <mxPoint x="-288" y="405" as="targetPoint" />
          </mxGeometry>
        </mxCell>
        <mxCell id="wkYLRUmF6i7sBflsOoCC-20" value="" style="endArrow=none;html=1;rounded=0;entryX=0.467;entryY=-0.008;entryDx=0;entryDy=0;exitX=0;exitY=1;exitDx=0;exitDy=0;entryPerimeter=0;" parent="1" source="hoW1CS-x4XJGpvW3vnKM-106" target="wkYLRUmF6i7sBflsOoCC-1" edge="1">
          <mxGeometry width="50" height="50" relative="1" as="geometry">
            <mxPoint x="-478.5" y="337.31" as="sourcePoint" />
            <mxPoint x="-531.5" y="337.31" as="targetPoint" />
          </mxGeometry>
        </mxCell>
        <mxCell id="wkYLRUmF6i7sBflsOoCC-21" value="" style="endArrow=none;html=1;rounded=0;exitX=0.5;exitY=1;exitDx=0;exitDy=0;entryX=0.5;entryY=0;entryDx=0;entryDy=0;" parent="1" source="hoW1CS-x4XJGpvW3vnKM-106" target="wkYLRUmF6i7sBflsOoCC-8" edge="1">
          <mxGeometry width="50" height="50" relative="1" as="geometry">
            <mxPoint x="-428.5" y="345" as="sourcePoint" />
            <mxPoint x="-450" y="360" as="targetPoint" />
          </mxGeometry>
        </mxCell>
        <mxCell id="wkYLRUmF6i7sBflsOoCC-22" value="" style="endArrow=none;html=1;rounded=0;entryX=1;entryY=1;entryDx=0;entryDy=0;exitX=0.5;exitY=0;exitDx=0;exitDy=0;" parent="1" source="wkYLRUmF6i7sBflsOoCC-12" target="hoW1CS-x4XJGpvW3vnKM-107" edge="1">
          <mxGeometry width="50" height="50" relative="1" as="geometry">
            <mxPoint x="-42" y="385" as="sourcePoint" />
            <mxPoint x="-95" y="385" as="targetPoint" />
          </mxGeometry>
        </mxCell>
        <mxCell id="wkYLRUmF6i7sBflsOoCC-23" value="" style="endArrow=none;html=1;rounded=0;entryX=0.516;entryY=0.011;entryDx=0;entryDy=0;exitX=0.328;exitY=0.996;exitDx=0;exitDy=0;entryPerimeter=0;exitPerimeter=0;" parent="1" source="hoW1CS-x4XJGpvW3vnKM-107" target="wkYLRUmF6i7sBflsOoCC-10" edge="1">
          <mxGeometry width="50" height="50" relative="1" as="geometry">
            <mxPoint x="-287" y="365" as="sourcePoint" />
            <mxPoint x="-340" y="365" as="targetPoint" />
          </mxGeometry>
        </mxCell>
        <mxCell id="1Vm8GJdrDrxkY6hrFtAs-3" value="" style="endArrow=none;html=1;rounded=0;entryX=1.005;entryY=0.442;entryDx=0;entryDy=0;exitX=0.5;exitY=0;exitDx=0;exitDy=0;entryPerimeter=0;" edge="1" parent="1" source="hoW1CS-x4XJGpvW3vnKM-25" target="hoW1CS-x4XJGpvW3vnKM-9">
          <mxGeometry width="50" height="50" relative="1" as="geometry">
            <mxPoint x="-295" y="170" as="sourcePoint" />
            <mxPoint x="-240" y="85" as="targetPoint" />
          </mxGeometry>
        </mxCell>
        <mxCell id="1Vm8GJdrDrxkY6hrFtAs-7" value="" style="endArrow=none;html=1;rounded=0;entryX=0.5;entryY=0;entryDx=0;entryDy=0;" edge="1" parent="1" target="hoW1CS-x4XJGpvW3vnKM-175">
          <mxGeometry width="50" height="50" relative="1" as="geometry">
            <mxPoint x="40" y="480" as="sourcePoint" />
            <mxPoint x="-73" y="525" as="targetPoint" />
          </mxGeometry>
        </mxCell>
        <mxCell id="1Vm8GJdrDrxkY6hrFtAs-8" value="" style="endArrow=none;html=1;rounded=0;entryX=0;entryY=0;entryDx=0;entryDy=0;" edge="1" parent="1" target="hoW1CS-x4XJGpvW3vnKM-176">
          <mxGeometry width="50" height="50" relative="1" as="geometry">
            <mxPoint x="40" y="480" as="sourcePoint" />
            <mxPoint x="-63" y="535" as="targetPoint" />
          </mxGeometry>
        </mxCell>
        <mxCell id="1Vm8GJdrDrxkY6hrFtAs-9" value="" style="endArrow=none;html=1;rounded=0;entryX=0;entryY=0.5;entryDx=0;entryDy=0;" edge="1" parent="1" source="hoW1CS-x4XJGpvW3vnKM-2" target="hoW1CS-x4XJGpvW3vnKM-174">
          <mxGeometry width="50" height="50" relative="1" as="geometry">
            <mxPoint x="40" y="480" as="sourcePoint" />
            <mxPoint x="-53" y="545" as="targetPoint" />
          </mxGeometry>
        </mxCell>
        <mxCell id="1Vm8GJdrDrxkY6hrFtAs-14" value="" style="endArrow=none;html=1;rounded=0;entryX=1;entryY=0;entryDx=0;entryDy=0;exitX=0.526;exitY=1.01;exitDx=0;exitDy=0;exitPerimeter=0;" edge="1" parent="1" source="hoW1CS-x4XJGpvW3vnKM-2" target="1Vm8GJdrDrxkY6hrFtAs-17">
          <mxGeometry width="50" height="50" relative="1" as="geometry">
            <mxPoint x="33.5" y="490" as="sourcePoint" />
            <mxPoint x="-48.37684024415012" y="575.3062505253934" as="targetPoint" />
          </mxGeometry>
        </mxCell>
        <mxCell id="1Vm8GJdrDrxkY6hrFtAs-15" value="" style="endArrow=none;html=1;rounded=0;entryX=0;entryY=0.5;entryDx=0;entryDy=0;" edge="1" parent="1" target="hoW1CS-x4XJGpvW3vnKM-2">
          <mxGeometry width="50" height="50" relative="1" as="geometry">
            <mxPoint x="40" y="480" as="sourcePoint" />
            <mxPoint x="105" y="495" as="targetPoint" />
          </mxGeometry>
        </mxCell>
        <mxCell id="hoW1CS-x4XJGpvW3vnKM-2" value="Film" style="rounded=0;whiteSpace=wrap;html=1;" parent="1" vertex="1">
          <mxGeometry x="-2.5" y="440" width="80" height="40" as="geometry" />
        </mxCell>
        <mxCell id="1Vm8GJdrDrxkY6hrFtAs-17" value="" style="ellipse;whiteSpace=wrap;html=1;" vertex="1" parent="1">
          <mxGeometry x="-132.5" y="570" width="95" height="40" as="geometry" />
        </mxCell>
        <mxCell id="1Vm8GJdrDrxkY6hrFtAs-18" value="&lt;p&gt;f_language&lt;br&gt;&lt;/p&gt;" style="ellipse;whiteSpace=wrap;html=1;" vertex="1" parent="1">
          <mxGeometry x="-122.5" y="575" width="75" height="30" as="geometry" />
        </mxCell>
        <mxCell id="1Vm8GJdrDrxkY6hrFtAs-23" value="" style="endArrow=classic;html=1;rounded=0;entryX=1;entryY=0;entryDx=0;entryDy=0;exitX=0;exitY=0.5;exitDx=0;exitDy=0;" edge="1" parent="1" source="hoW1CS-x4XJGpvW3vnKM-22" target="hoW1CS-x4XJGpvW3vnKM-9">
          <mxGeometry width="50" height="50" relative="1" as="geometry">
            <mxPoint x="40" y="-80" as="sourcePoint" />
            <mxPoint x="140" y="-90" as="targetPoint" />
          </mxGeometry>
        </mxCell>
        <mxCell id="1Vm8GJdrDrxkY6hrFtAs-24" value="Specialization" style="text;html=1;align=center;verticalAlign=middle;resizable=0;points=[];autosize=1;strokeColor=none;fillColor=none;" vertex="1" parent="1">
          <mxGeometry x="-410" y="66.25" width="100" height="30" as="geometry" />
        </mxCell>
        <mxCell id="1Vm8GJdrDrxkY6hrFtAs-25" value="Aggregation" style="text;html=1;align=center;verticalAlign=middle;resizable=0;points=[];autosize=1;strokeColor=none;fillColor=none;" vertex="1" parent="1">
          <mxGeometry x="268" y="96.25" width="90" height="30" as="geometry" />
        </mxCell>
        <mxCell id="1Vm8GJdrDrxkY6hrFtAs-26" value="" style="endArrow=classic;html=1;rounded=0;entryX=0;entryY=0;entryDx=0;entryDy=0;exitX=0.5;exitY=1;exitDx=0;exitDy=0;" edge="1" parent="1" source="hoW1CS-x4XJGpvW3vnKM-25" target="hoW1CS-x4XJGpvW3vnKM-2">
          <mxGeometry width="50" height="50" relative="1" as="geometry">
            <mxPoint x="50" y="-75" as="sourcePoint" />
            <mxPoint x="-200" y="45" as="targetPoint" />
          </mxGeometry>
        </mxCell>
        <mxCell id="1Vm8GJdrDrxkY6hrFtAs-27" value="" style="endArrow=classic;html=1;rounded=0;entryX=0.5;entryY=0;entryDx=0;entryDy=0;exitX=0.5;exitY=1;exitDx=0;exitDy=0;" edge="1" parent="1" source="hoW1CS-x4XJGpvW3vnKM-26" target="hoW1CS-x4XJGpvW3vnKM-2">
          <mxGeometry width="50" height="50" relative="1" as="geometry">
            <mxPoint x="-17.5" y="205" as="sourcePoint" />
            <mxPoint x="75.5" y="445" as="targetPoint" />
          </mxGeometry>
        </mxCell>
        <mxCell id="1Vm8GJdrDrxkY6hrFtAs-28" value="" style="endArrow=classic;html=1;rounded=0;entryX=0.75;entryY=0;entryDx=0;entryDy=0;exitX=0.5;exitY=1;exitDx=0;exitDy=0;" edge="1" parent="1" source="hoW1CS-x4XJGpvW3vnKM-24" target="hoW1CS-x4XJGpvW3vnKM-2">
          <mxGeometry width="50" height="50" relative="1" as="geometry">
            <mxPoint x="-75" y="220" as="sourcePoint" />
            <mxPoint x="18" y="460" as="targetPoint" />
          </mxGeometry>
        </mxCell>
        <mxCell id="1Vm8GJdrDrxkY6hrFtAs-29" value="" style="endArrow=classic;html=1;rounded=0;entryX=1;entryY=0;entryDx=0;entryDy=0;exitX=0;exitY=0.5;exitDx=0;exitDy=0;" edge="1" parent="1" source="hoW1CS-x4XJGpvW3vnKM-30" target="hoW1CS-x4XJGpvW3vnKM-2">
          <mxGeometry width="50" height="50" relative="1" as="geometry">
            <mxPoint x="-65" y="230" as="sourcePoint" />
            <mxPoint x="28" y="470" as="targetPoint" />
          </mxGeometry>
        </mxCell>
        <mxCell id="1Vm8GJdrDrxkY6hrFtAs-30" value="" style="endArrow=classic;html=1;rounded=0;entryX=0;entryY=0.5;entryDx=0;entryDy=0;exitX=0.5;exitY=1;exitDx=0;exitDy=0;" edge="1" parent="1" source="hoW1CS-x4XJGpvW3vnKM-58">
          <mxGeometry width="50" height="50" relative="1" as="geometry">
            <mxPoint x="-565" y="35" as="sourcePoint" />
            <mxPoint x="-2.5" y="451.25" as="targetPoint" />
            <Array as="points">
              <mxPoint x="-565" y="451.25" />
            </Array>
          </mxGeometry>
        </mxCell>
        <mxCell id="1Vm8GJdrDrxkY6hrFtAs-31" value="" style="endArrow=classic;html=1;rounded=0;entryX=0;entryY=0.75;entryDx=0;entryDy=0;exitX=0;exitY=0.5;exitDx=0;exitDy=0;" edge="1" parent="1" source="hoW1CS-x4XJGpvW3vnKM-14" target="hoW1CS-x4XJGpvW3vnKM-2">
          <mxGeometry width="50" height="50" relative="1" as="geometry">
            <mxPoint x="-650" y="-320" as="sourcePoint" />
            <mxPoint x="-17.5" y="473.63" as="targetPoint" />
            <Array as="points">
              <mxPoint x="-650" y="-330" />
              <mxPoint x="-650" y="470" />
            </Array>
          </mxGeometry>
        </mxCell>
        <mxCell id="1Vm8GJdrDrxkY6hrFtAs-32" value="" style="endArrow=classic;html=1;rounded=0;entryX=1;entryY=0.5;entryDx=0;entryDy=0;exitX=0.5;exitY=1;exitDx=0;exitDy=0;" edge="1" parent="1" source="hoW1CS-x4XJGpvW3vnKM-64" target="hoW1CS-x4XJGpvW3vnKM-2">
          <mxGeometry width="50" height="50" relative="1" as="geometry">
            <mxPoint x="442.5" y="450" as="sourcePoint" />
            <mxPoint x="302.5" y="510" as="targetPoint" />
            <Array as="points">
              <mxPoint x="840" y="460" />
            </Array>
          </mxGeometry>
        </mxCell>
        <mxCell id="1Vm8GJdrDrxkY6hrFtAs-35" value="" style="endArrow=classic;html=1;rounded=0;entryX=0;entryY=0.5;entryDx=0;entryDy=0;exitX=1;exitY=0.5;exitDx=0;exitDy=0;" edge="1" parent="1" source="hoW1CS-x4XJGpvW3vnKM-22" target="hoW1CS-x4XJGpvW3vnKM-6">
          <mxGeometry width="50" height="50" relative="1" as="geometry">
            <mxPoint x="380" y="-70" as="sourcePoint" />
            <mxPoint x="430" y="-120" as="targetPoint" />
            <Array as="points">
              <mxPoint x="240" y="-170" />
            </Array>
          </mxGeometry>
        </mxCell>
        <mxCell id="1Vm8GJdrDrxkY6hrFtAs-36" value="" style="endArrow=classic;html=1;rounded=0;entryX=1;entryY=0.5;entryDx=0;entryDy=0;exitX=0;exitY=0.5;exitDx=0;exitDy=0;" edge="1" parent="1" source="hoW1CS-x4XJGpvW3vnKM-29" target="hoW1CS-x4XJGpvW3vnKM-4">
          <mxGeometry width="50" height="50" relative="1" as="geometry">
            <mxPoint x="110" y="280" as="sourcePoint" />
            <mxPoint x="160" y="230" as="targetPoint" />
          </mxGeometry>
        </mxCell>
        <mxCell id="1Vm8GJdrDrxkY6hrFtAs-37" value="" style="endArrow=classic;html=1;rounded=0;entryX=0.25;entryY=1;entryDx=0;entryDy=0;exitX=1;exitY=0.5;exitDx=0;exitDy=0;" edge="1" parent="1" source="hoW1CS-x4XJGpvW3vnKM-30" target="hoW1CS-x4XJGpvW3vnKM-4">
          <mxGeometry width="50" height="50" relative="1" as="geometry">
            <mxPoint x="330" y="370" as="sourcePoint" />
            <mxPoint x="453" y="195" as="targetPoint" />
          </mxGeometry>
        </mxCell>
        <mxCell id="1Vm8GJdrDrxkY6hrFtAs-38" value="" style="endArrow=classic;html=1;rounded=0;entryX=0;entryY=0.5;entryDx=0;entryDy=0;exitX=0.5;exitY=0;exitDx=0;exitDy=0;" edge="1" parent="1" source="hoW1CS-x4XJGpvW3vnKM-58" target="hoW1CS-x4XJGpvW3vnKM-8">
          <mxGeometry width="50" height="50" relative="1" as="geometry">
            <mxPoint x="50" y="-75" as="sourcePoint" />
            <mxPoint x="-200" y="45" as="targetPoint" />
          </mxGeometry>
        </mxCell>
      </root>
    </mxGraphModel>
  </diagram>
</mxfile>
